<svg width="36" height="36" viewBox="0 0 36 36" fill="none" xmlns="http://www.w3.org/2000/svg">
<circle cx="18" cy="18" r="18" fill="white"/>
<g clip-path="url(#clip0_49_15873)">
<path d="M18 29C24.0751 29 29 24.0751 29 18C29 11.9249 24.0751 7 18 7C11.9249 7 7 11.9249 7 18C7 24.0751 11.9249 29 18 29Z" fill="#0033AD"/>
<path fill-rule="evenodd" clip-rule="evenodd" d="M18.3594 11.2939C18.5293 10.9483 18.1391 10.5297 17.8194 10.7102C17.5594 10.8223 17.4934 11.2297 17.6957 11.4358C17.8868 11.6505 18.2608 11.5756 18.3594 11.2939ZM14.8014 11.4463C14.8212 11.2173 14.5754 11.0247 14.3812 11.1112C14.1109 11.1892 14.0809 11.6499 14.3431 11.7598C14.5411 11.878 14.822 11.695 14.8014 11.4463ZM21.4231 11.7668C21.1197 11.7271 21.0716 11.2108 21.3638 11.1068C21.5904 10.9872 21.7983 11.2115 21.8314 11.444C21.7839 11.6425 21.6304 11.8242 21.4231 11.7668ZM15.9015 13.2118C15.9514 12.8037 15.4881 12.4728 15.1635 12.695C14.8595 12.8632 14.8177 13.3652 15.0936 13.584C15.3789 13.8626 15.8846 13.6239 15.9015 13.2118ZM20.1195 12.9308C20.2642 12.5268 20.8512 12.5146 21.016 12.9078C21.179 13.2139 20.9785 13.5928 20.6882 13.6969C20.3037 13.7746 19.9384 13.3247 20.1195 12.9308ZM17.9993 13.0443C17.6945 13.068 17.4022 13.3267 17.4053 13.674C17.388 13.9577 17.5753 14.1894 17.7977 14.3076C17.82 14.3091 17.8427 14.311 17.8655 14.313C17.9912 14.3238 18.1217 14.335 18.2347 14.2664C18.527 14.1266 18.6705 13.7071 18.5088 13.4024C18.4221 13.1815 18.2017 13.0883 17.9993 13.0443ZM12.2922 14.1799C12.5888 13.9826 12.9889 14.3427 12.8766 14.6913C12.8148 14.9929 12.4402 15.1156 12.2261 14.9231C11.9975 14.7427 12.0337 14.3089 12.2922 14.1799ZM23.9089 14.5542C23.9389 14.2104 23.5236 13.9678 23.2721 14.1793C23.0139 14.3509 23.0419 14.8089 23.317 14.9427C23.5668 15.1041 23.9258 14.8677 23.9089 14.5542ZM18.8433 14.8035C19.2586 14.642 19.7516 14.8352 19.9883 15.2359C20.3005 15.7256 20.1344 16.4714 19.65 16.7525C19.148 17.0849 18.4151 16.8032 18.2296 16.1965C18.0191 15.6534 18.3258 14.9737 18.8433 14.8035ZM17.7089 15.3285C17.4867 14.819 16.8674 14.6218 16.4072 14.8569C15.9167 15.0939 15.6911 15.7932 15.9452 16.3081C16.1718 16.8405 16.8323 17.0587 17.3006 16.7708C17.7683 16.5148 17.9705 15.8243 17.7089 15.3285ZM13.9679 15.7594C14.0028 15.4386 14.2825 15.2297 14.5647 15.2082C14.8688 15.2479 15.1116 15.5034 15.1447 15.8364C15.1248 16.1661 14.8894 16.4883 14.5666 16.4863C14.2114 16.5194 13.9 16.137 13.9679 15.7594ZM22.0275 15.8359C22.0437 15.3826 21.5373 15.0482 21.1728 15.2779C20.7812 15.4777 20.7519 16.1384 21.129 16.373C21.4921 16.6548 22.0525 16.3163 22.0275 15.8359ZM15.4158 16.9708C15.8422 16.8438 16.3298 17.0613 16.5389 17.4856C16.7681 17.9125 16.6744 18.5057 16.3185 18.8188C15.8622 19.2783 15.0206 19.0938 14.7777 18.4669C14.4986 17.8922 14.8376 17.122 15.4158 16.9708ZM21.1608 17.4218C20.938 17.013 20.451 16.84 20.0365 16.9684C19.4539 17.1411 19.1455 17.9409 19.4521 18.5068C19.7049 19.054 20.4167 19.2377 20.8762 18.8878C21.3148 18.5864 21.4555 17.8892 21.1608 17.4218ZM12.673 17.5017C13.0414 17.3509 13.4497 17.7909 13.3005 18.1861C13.2093 18.5461 12.7404 18.6792 12.4982 18.4138C12.2148 18.1645 12.3197 17.6099 12.673 17.5017ZM23.183 17.4342C22.8701 17.4525 22.6468 17.745 22.6574 18.0753C22.7185 18.2293 22.7928 18.3901 22.9377 18.4699C23.2467 18.6543 23.6838 18.3875 23.6607 17.9949C23.6806 17.6977 23.4353 17.4775 23.183 17.4342ZM10.8618 17.6957C11.0834 17.591 11.3576 17.7988 11.307 18.0652C11.2951 18.3667 10.8837 18.4827 10.7325 18.2307C10.599 18.0557 10.6789 17.7859 10.8618 17.6957ZM25.3033 17.853C25.2415 17.6558 24.991 17.5693 24.835 17.6896C24.5753 17.8395 24.6772 18.3584 24.9918 18.3273C25.2158 18.3638 25.4081 18.0686 25.3033 17.853ZM16.6195 19.1373C17.2026 18.9731 17.8295 19.4995 17.8332 20.1493C17.8712 20.806 17.2538 21.3883 16.6569 21.2366C16.1954 21.1562 15.8334 20.6752 15.8484 20.1706C15.8471 19.6879 16.1836 19.2393 16.6195 19.1373ZM20.1569 20.1575C20.1663 19.4926 19.5207 18.9569 18.9288 19.1359C18.5779 19.2303 18.2809 19.5433 18.2033 19.9282C18.0498 20.5059 18.4556 21.1598 19.0056 21.2368C19.59 21.3647 20.1882 20.802 20.1569 20.1575ZM14.4761 19.536C14.8857 19.4603 15.2697 19.9549 15.1036 20.3757C14.9824 20.8241 14.3793 20.9459 14.1127 20.5795C13.7999 20.2277 14.0334 19.5845 14.4761 19.536ZM22.0342 20.161C22.0624 19.732 21.614 19.3901 21.2488 19.5557C20.8075 19.7076 20.7339 20.4358 21.1384 20.6833C21.4955 20.9589 22.0489 20.6332 22.0342 20.161ZM23.1418 21.6106C22.9988 21.3221 23.2586 20.9397 23.5546 20.9932C23.6938 20.9906 23.7935 21.1026 23.8836 21.2039L23.8993 21.2215L23.9027 21.2508C23.9218 21.4152 23.9437 21.6039 23.82 21.7282C23.642 21.9721 23.2387 21.9024 23.1418 21.6106ZM12.9034 21.5215C12.9656 21.1714 12.5676 20.8742 12.2909 21.0735C12.0275 21.2188 12.0181 21.6728 12.2728 21.8322C12.5101 22.0078 12.8704 21.8309 12.9034 21.5215ZM17.7558 21.7214C18.1179 21.5485 18.5792 21.8897 18.5449 22.3213C18.5717 22.7984 18.0012 23.1286 17.6471 22.8422C17.2538 22.5962 17.3194 21.8727 17.7558 21.7214ZM15.9189 22.8617C15.947 22.4882 15.5331 22.1848 15.2247 22.3605C15.0074 22.4483 14.9188 22.7078 14.915 22.9407C14.9893 23.1544 15.1403 23.3792 15.372 23.3846C15.6517 23.4299 15.9283 23.1684 15.9189 22.8617ZM20.3517 22.3659C20.6689 22.1537 21.1197 22.4584 21.0897 22.858C21.0978 23.2755 20.5884 23.5429 20.293 23.2686C20.0071 23.0537 20.042 22.5368 20.3517 22.3659ZM21.4974 24.1893C21.2683 24.2419 21.1022 24.5203 21.2432 24.7513C21.3882 25.0195 21.8108 24.9237 21.8377 24.6109C21.8764 24.3797 21.6816 24.2298 21.4974 24.1893ZM14.1658 24.5507C14.222 24.3676 14.3581 24.1857 14.5572 24.2332C14.8476 24.2555 14.9337 24.7291 14.6797 24.8751C14.4511 25.0418 14.186 24.8135 14.1658 24.5507ZM18.1734 24.5021C17.9598 24.3582 17.6359 24.4899 17.5802 24.7608C17.4787 25.0344 17.7226 25.3652 17.993 25.3309C18.1385 25.335 18.2509 25.2229 18.3382 25.1107C18.3553 25.035 18.3726 24.9593 18.392 24.8837L18.3908 24.8789C18.3548 24.7347 18.3129 24.5669 18.1734 24.5021Z" fill="white"/>
</g>
<defs>
<clipPath id="clip0_49_15873">
<rect width="22" height="22" fill="white" transform="translate(7 7)"/>
</clipPath>
</defs>
</svg>
