<svg width="36" height="36" viewBox="0 0 36 36" fill="none" xmlns="http://www.w3.org/2000/svg">
<circle cx="18" cy="18" r="18" fill="white"/>
<path fill-rule="evenodd" clip-rule="evenodd" d="M25.9582 15.8444C26.2911 13.5327 24.5967 12.2901 22.2799 11.461L23.0314 8.32957L21.1965 7.85453L20.4648 10.9034C19.9823 10.7786 19.4869 10.6608 18.9945 10.5441L19.7315 7.47504L17.8976 7L17.1455 10.1304C16.7462 10.0359 16.3542 9.94254 15.9738 9.84427L15.9758 9.83449L13.4452 9.17811L12.9571 11.214C12.9571 11.214 14.3186 11.5381 14.2898 11.5582C15.033 11.7509 15.1673 12.2618 15.1448 12.6668L14.2888 16.2342C14.34 16.2478 14.4064 16.2673 14.4795 16.2977L14.4151 16.281C14.3733 16.2701 14.3299 16.2588 14.2856 16.2478L13.0856 21.2452C12.9947 21.4797 12.7642 21.8315 12.2447 21.6979C12.263 21.7257 10.911 21.3522 10.911 21.3522L10 23.5341L12.3879 24.1524C12.6547 24.2219 12.9183 24.2932 13.1791 24.3639C13.3524 24.4108 13.525 24.4576 13.6961 24.5031L12.9367 27.6704L14.7696 28.1454L15.5217 25.0118C16.0223 25.153 16.5084 25.2833 16.984 25.406L16.2346 28.525L18.0695 29L18.8289 25.8387C21.9579 26.4538 24.3108 26.2056 25.3012 23.2658C26.0993 20.8988 25.2615 19.5335 23.6153 18.6431C24.8142 18.3559 25.7172 17.5366 25.9582 15.8444ZM21.7656 21.9516C21.2453 24.1232 17.973 23.2254 16.4757 22.8146C16.341 22.7776 16.2206 22.7446 16.118 22.7181L17.1256 18.522C17.2507 18.5544 17.4034 18.59 17.5764 18.6303C19.125 18.9913 22.2987 19.731 21.7656 21.9516ZM17.8875 16.6831C19.1358 17.0291 21.8589 17.784 22.3332 15.8102C22.8175 13.7913 20.1711 13.1828 18.8787 12.8856C18.7332 12.8521 18.6049 12.8226 18.5001 12.7955L17.5866 16.6012C17.6729 16.6236 17.7741 16.6516 17.8875 16.6831Z" fill="#F7931A"/>
</svg>
