<svg width="36" height="36" viewBox="0 0 36 36" fill="none" xmlns="http://www.w3.org/2000/svg">
<circle cx="18" cy="18" r="18" fill="white"/>
<g clip-path="url(#clip0_49_15859)">
<path d="M12.1498 9.93757C11.7829 10.5464 10.9848 10.7471 10.3673 10.3854C9.7497 10.0237 9.54615 9.23689 9.913 8.62805C10.2799 8.01921 11.078 7.81852 11.6955 8.1802C12.3131 8.54188 12.5166 9.32873 12.1498 9.93757Z" fill="#5F45BA"/>
<path d="M7.70879 9.36838C7.45004 9.79809 6.88539 9.93981 6.44954 9.68471C6.01369 9.42961 5.86994 8.87405 6.12869 8.44321C6.38744 8.01237 6.95209 7.87178 7.38794 8.12688C7.82494 8.38312 7.96869 8.93868 7.70879 9.36838Z" fill="#5F45BA"/>
<path d="M20.069 27.9284C24.8346 27.3763 28.6676 23.535 28.9804 18.6461C29.3323 13.145 25.0934 8.40462 19.5136 8.05882C18.8592 8.018 18.2026 8.04068 17.5528 8.12458C16.2119 8.23229 15.0792 8.73682 15.0792 8.73682C14.1615 9.179 13.5692 9.91823 13.5692 10.9069C13.5692 12.1926 14.6261 13.2357 15.9302 13.2357C16.1487 13.2357 16.9031 12.9999 17.0825 12.9386C17.7679 12.7028 18.4947 12.6053 19.2192 12.6518C21.1466 12.772 22.7761 13.8649 23.649 15.4148C24.155 16.3128 24.3884 17.3343 24.3217 18.3593C24.132 21.3241 21.541 23.577 18.5326 23.3899C16.7559 23.2788 15.2321 22.3411 14.3202 20.9817C13.23 19.5758 13.4818 17.3275 13.4807 17.2992C13.4358 16.0486 12.3974 15.0486 11.1186 15.0486C10.0261 15.0486 9.10953 15.7799 8.83698 16.772C8.78408 16.967 8.75648 17.5384 8.76453 17.6144C8.53913 23.0203 12.7355 27.6382 18.2394 27.9795C18.85 28.0169 19.4618 27.9999 20.069 27.9284Z" fill="#5F45BA"/>
<path d="M10.7934 13.4978C10.3173 14.288 9.28229 14.5477 8.48189 14.0783C7.68149 13.6089 7.41699 12.5885 7.89309 11.7994C8.36919 11.0102 9.40419 10.7495 10.2046 11.2189C11.005 11.6882 11.2683 12.7087 10.7934 13.4978Z" fill="#5F45BA"/>
</g>
<defs>
<clipPath id="clip0_49_15859">
<rect width="23" height="20" fill="white" transform="translate(6 8)"/>
</clipPath>
</defs>
</svg>
