<svg width="36" height="36" viewBox="0 0 36 36" fill="none" xmlns="http://www.w3.org/2000/svg">
<circle cx="18" cy="18" r="18" fill="white"/>
<g clip-path="url(#clip0_49_15852)">
<path fill-rule="evenodd" clip-rule="evenodd" d="M24.6379 12.9524H7.42162C7.33955 12.9522 7.25932 12.9277 7.19077 12.8818C7.12222 12.8359 7.06832 12.7708 7.03569 12.6942C7.00306 12.6177 6.99312 12.5331 7.00708 12.4509C7.02105 12.3687 7.05831 12.2924 7.1143 12.2314L10.7479 8.27238C10.8266 8.18661 10.9218 8.11818 11.0276 8.07133C11.1334 8.02448 11.2476 8.0002 11.363 8H28.5784C28.6605 8 28.7408 8.0244 28.8097 8.07019C28.8782 8.11598 28.9322 8.18117 28.9652 8.25775C28.9978 8.33432 29.0078 8.41896 28.9939 8.50125C28.9799 8.58354 28.9426 8.6599 28.8867 8.72095L25.255 12.68C25.176 12.766 25.0805 12.8346 24.9743 12.8814C24.8681 12.9283 24.7536 12.9524 24.6379 12.9524ZM25.255 15.7962C25.176 15.7102 25.0805 15.6416 24.9743 15.5948C24.8681 15.5479 24.7536 15.5237 24.6379 15.5238H7.42162C7.33947 15.5238 7.25911 15.5482 7.19042 15.594C7.12173 15.6398 7.06769 15.705 7.03494 15.7816C7.0022 15.8582 6.99218 15.9428 7.00611 16.0251C7.02004 16.1074 7.05732 16.1837 7.11336 16.2448L10.7479 20.2038C10.8266 20.2895 10.9218 20.358 11.0276 20.4049C11.1334 20.4517 11.2476 20.476 11.363 20.4762H28.5784C28.6605 20.4762 28.7408 20.4518 28.8097 20.406C28.8782 20.3602 28.9322 20.295 28.9652 20.2185C28.9978 20.1418 29.0078 20.0573 28.9939 19.9749C28.9799 19.8926 28.9426 19.8163 28.8867 19.7553L25.255 15.7962ZM28.8867 23.7686L25.255 27.7276C25.176 27.8136 25.0805 27.8822 24.9743 27.929C24.8681 27.9759 24.7536 28.0001 24.6379 28H7.42162C7.33947 28 7.25911 27.9755 7.19042 27.9298C7.12173 27.884 7.06769 27.8189 7.03494 27.7423C7.0022 27.6656 6.99218 27.581 7.00611 27.4987C7.02004 27.4165 7.05732 27.3401 7.11336 27.279L10.7479 23.32C10.8266 23.2342 10.9218 23.1658 11.0276 23.119C11.1334 23.0721 11.2476 23.0478 11.363 23.0476H28.5784C28.6605 23.0476 28.7408 23.072 28.8097 23.1178C28.8782 23.1635 28.9322 23.2288 28.9652 23.3054C28.9978 23.3819 29.0078 23.4666 28.9939 23.5489C28.9799 23.6311 28.9426 23.7075 28.8867 23.7686Z" fill="url(#paint0_linear_49_15852)"/>
</g>
<defs>
<linearGradient id="paint0_linear_49_15852" x1="20.3863" y1="36.5445" x2="36.0678" y2="14.1353" gradientUnits="userSpaceOnUse">
<stop offset="0.08" stop-color="#9945FF"/>
<stop offset="0.3" stop-color="#8752F3"/>
<stop offset="0.5" stop-color="#2F7BD3"/>
<stop offset="0.6" stop-color="#2F7BD3"/>
<stop offset="0.72" stop-color="#28E0B9"/>
<stop offset="0.97" stop-color="#19FB9B"/>
</linearGradient>
<clipPath id="clip0_49_15852">
<rect width="22" height="20" fill="white" transform="translate(7 8)"/>
</clipPath>
</defs>
</svg>
