<svg width="36" height="36" viewBox="0 0 36 36" fill="none" xmlns="http://www.w3.org/2000/svg">
<circle cx="18" cy="18" r="18" fill="white"/>
<g clip-path="url(#clip0_49_15866)">
<path d="M26.1609 7H8.88086V12.7391H26.1609V7Z" fill="#26A69A"/>
<path fill-rule="evenodd" clip-rule="evenodd" d="M6 19.4347C6 16.4143 13.543 15.6086 18 15.6086C22.457 15.6086 30 16.4143 30 19.4347C30 22.4551 22.457 23.2608 18 23.2608C13.543 23.2608 6 22.4551 6 19.4347ZM8 18.8882C8 20.0961 12.477 21.0745 18 21.0745C23.523 21.0745 28 20.0961 28 18.8882C28 17.6802 23.523 16.7019 18 16.7019C12.477 16.7019 8 17.6802 8 18.8882Z" fill="#26A69A"/>
<path d="M17.5206 18.4783C18.5718 18.4783 19.5299 18.4429 20.4006 18.3845V7.95654H14.6406V18.3845C15.5113 18.4429 16.4694 18.4783 17.5206 18.4783Z" fill="#26A69A"/>
<path d="M19.1747 20.4425C19.0681 20.446 18.9606 20.4486 18.8521 20.451C18.4153 20.4621 17.9737 20.4698 17.5206 20.4698C17.0675 20.4698 16.6259 20.4621 16.1891 20.4519C16.0806 20.4493 15.9731 20.4468 15.8665 20.4434C15.4489 20.4306 15.0381 20.4144 14.6406 20.3922V29.0001H20.4006V20.3914C20.0032 20.4135 19.5923 20.4297 19.1747 20.4425Z" fill="#26A69A"/>
</g>
<defs>
<clipPath id="clip0_49_15866">
<rect width="24" height="22" fill="white" transform="translate(6 7)"/>
</clipPath>
</defs>
</svg>
