<svg width="36" height="36" viewBox="0 0 36 36" fill="none" xmlns="http://www.w3.org/2000/svg">
<circle cx="18" cy="18" r="18" fill="white"/>
<g clip-path="url(#clip0_49_15845)">
<path d="M26.5158 8H30L22.752 15.0818C21.4854 16.3107 19.7784 17 18 17C16.2216 17 14.5152 16.3107 13.248 15.0818L6 8H9.4842L14.9916 13.3699C15.7944 14.1496 16.8756 14.587 18.003 14.587C19.1304 14.587 20.2116 14.1496 21.0144 13.3699L26.5158 8Z" fill="#263238"/>
<path d="M21.0144 22.6301C20.2116 21.8504 19.1304 21.413 18.003 21.413C16.8756 21.413 15.7944 21.8504 14.9916 22.6301L9.4842 28H6L13.248 20.9182C14.5146 19.6893 16.2216 19 18 19C19.7784 19 21.4848 19.6893 22.752 20.9182L30 28H26.5158L21.0144 22.6301Z" fill="#263238"/>
</g>
<defs>
<clipPath id="clip0_49_15845">
<rect width="24" height="20" fill="white" transform="translate(6 8)"/>
</clipPath>
</defs>
</svg>
